<?xml version="1.0" encoding="UTF-8"?>
<svg version="1.1" xmlns="http://www.w3.org/2000/svg" width="1024" height="1024">
<path d="M0 0 C337.92 0 675.84 0 1024 0 C1024 337.92 1024 675.84 1024 1024 C686.08 1024 348.16 1024 0 1024 C0 686.08 0 348.16 0 0 Z " fill="#000000" transform="translate(0,0)"/>
<path d="M0 0 C0.73226807 0.00221558 1.46453613 0.00443115 2.21899414 0.00671387 C60.20397987 0.21246908 116.92213681 16.77553223 162.8125 53.125 C163.78574219 53.89457031 164.75898438 54.66414063 165.76171875 55.45703125 C168.12082869 57.33576455 170.47127952 59.22405328 172.8125 61.125 C171.48758811 64.08270044 170.07198032 66.08213919 167.72265625 68.3046875 C167.10890137 68.89612549 166.49514648 69.48756348 165.86279297 70.09692383 C165.20682129 70.72493896 164.55084961 71.3529541 163.875 72 C156.81109221 78.92680169 150.6631666 86.1621504 144.8125 94.125 C144.27850586 94.84655273 143.74451172 95.56810547 143.19433594 96.31152344 C137.84678824 103.55510354 132.54639358 110.75995227 127.9375 118.5 C125.09447325 123.06990226 122.86703141 125.19508801 117.8125 127.125 C114.375 127.375 114.375 127.375 111.8125 127.125 C112.91078125 126.10986328 112.91078125 126.10986328 114.03125 125.07421875 C117.07248121 122.0276483 119.13348643 118.62604369 121.3125 114.9375 C129.26492386 101.8665187 138.54725606 89.70774543 147.76708984 77.51367188 C150.85250628 73.43159544 153.85399815 69.30013214 156.8125 65.125 C155.72001953 64.7228125 155.72001953 64.7228125 154.60546875 64.3125 C151.85204485 63.14181347 149.60697708 61.78764487 147.125 60.125 C122.32879092 44.13709575 95.65311916 33.24704136 66.875 26.75 C65.82320557 26.5113623 64.77141113 26.27272461 63.68774414 26.02685547 C48.51326911 22.77644132 33.53732662 21.74321874 18.0625 21.8125 C17.23277679 21.81399048 16.40305359 21.81548096 15.54818726 21.8170166 C3.55280861 21.85564674 -8.14748133 22.31333768 -19.94433594 24.67626953 C-22.23084513 25.13367091 -24.52273824 25.53588104 -26.8203125 25.93359375 C-60.46372935 32.06207913 -92.3351954 47.12522919 -119.1875 68.125 C-120.07308594 68.79917969 -120.95867187 69.47335937 -121.87109375 70.16796875 C-129.02950185 75.72289343 -135.61964614 81.89458121 -142.1875 88.125 C-142.94289062 88.83785156 -143.69828125 89.55070312 -144.4765625 90.28515625 C-159.29814762 104.66386532 -170.8514576 122.36935968 -181.1875 140.125 C-181.5494043 140.73746582 -181.91130859 141.34993164 -182.28417969 141.98095703 C-202.90633194 177.17675467 -214.21069418 221.5797841 -214.390625 262.29296875 C-214.39917511 263.84894524 -214.39917511 263.84894524 -214.40789795 265.43635559 C-214.4172852 267.62382001 -214.42385672 269.81129817 -214.42773438 271.9987793 C-214.43734299 275.25922122 -214.46838744 278.51900485 -214.5 281.77929688 C-214.83676065 348.96939964 -189.33595247 412.5245799 -143.1875 461.125 C-142.68202637 461.65915527 -142.17655273 462.19331055 -141.65576172 462.74365234 C-133.74720643 471.04184023 -125.3722587 478.27843024 -116.1875 485.125 C-115.24003906 485.84429688 -114.29257813 486.56359375 -113.31640625 487.3046875 C-72.15956454 518.00804982 -22.25860057 533.33918916 28.75 533.375 C30.05032669 533.37601212 30.05032669 533.37601212 31.37692261 533.37704468 C44.43154101 533.36092396 57.00036964 532.80783686 69.8125 530.125 C70.66908203 529.95871094 71.52566406 529.79242187 72.40820312 529.62109375 C99.31002975 524.36911024 124.60392964 515.19778576 147.58984375 500.19140625 C150.8125 498.125 150.8125 498.125 154.8125 496.125 C158.1125 498.765 161.4125 501.405 164.8125 504.125 C162.7106532 508.3286936 160.31448151 510.66141177 156.8125 513.625 C156.19729492 514.14690918 155.58208984 514.66881836 154.94824219 515.20654297 C113.43405308 549.65031449 59.66418606 565.64028595 6.29321289 565.38574219 C3.61516935 565.37496042 0.93778998 565.38575584 -1.74023438 565.3984375 C-12.7010815 565.40766729 -23.34256543 564.70397789 -34.1875 563.125 C-35.17129639 562.98433105 -36.15509277 562.84366211 -37.16870117 562.69873047 C-81.40796637 555.9601077 -123.48745591 538.02863553 -159.1875 511.125 C-160.06100098 510.46781982 -160.06100098 510.46781982 -160.95214844 509.79736328 C-179.00473029 496.1225079 -196.48771516 480.2225309 -210.1875 462.125 C-210.69458496 461.46725586 -211.20166992 460.80951172 -211.72412109 460.13183594 C-220.81654183 448.31090267 -228.85537616 436.10778183 -236.1875 423.125 C-236.62545898 422.35752441 -237.06341797 421.59004883 -237.51464844 420.79931641 C-259.01577825 382.80205104 -272.19705029 336.75743772 -272.390625 292.95703125 C-272.39632507 291.91971359 -272.40202515 290.88239594 -272.40789795 289.81364441 C-272.4172852 287.62617999 -272.42385672 285.43870183 -272.42773438 283.2512207 C-272.43734299 279.99077878 -272.46838744 276.73099515 -272.5 273.47070312 C-272.80787528 212.45542036 -251.68740532 150.62737074 -213.1875 103.125 C-212.46175781 102.2071875 -211.73601562 101.289375 -210.98828125 100.34375 C-205.06777403 92.9457733 -198.70875319 85.9916155 -192.1875 79.125 C-191.40246094 78.29742187 -190.61742187 77.46984375 -189.80859375 76.6171875 C-184.30479374 70.96570055 -178.36269322 66.02312446 -172.1875 61.125 C-171.15009442 60.27459173 -170.11366234 59.42299473 -169.078125 58.5703125 C-121.65860034 19.89305367 -60.93548817 -0.245401 0 0 Z " fill="#FDFDFD" transform="translate(341.1875,223.875)"/>
<path d="M0 0 C0.83515137 0.32693848 1.67030273 0.65387695 2.53076172 0.99072266 C37.10164472 14.72132595 67.10706306 35.4596664 94 61 C94.82757812 61.78503906 95.65515625 62.57007813 96.5078125 63.37890625 C101.2946645 68.0406663 105.58344328 72.9768129 109.75390625 78.1953125 C111.21686491 80.02210262 112.70296955 81.83066949 114.21484375 83.6171875 C147.27303998 122.77575386 165.03414863 172.81536273 172 223 C172.13103119 223.94339737 172.13103119 223.94339737 172.26470947 224.90585327 C173.08058021 231.37843389 173.17808654 237.80230206 173.203125 244.3203125 C173.20882507 245.496008 173.21452515 246.67170349 173.22039795 247.88302612 C173.22981175 250.36911125 173.23636747 252.85520865 173.24023438 255.34130859 C173.24984518 259.06501426 173.2808647 262.78814452 173.3125 266.51171875 C173.37948669 281.58855811 172.451365 296.12284494 170 311 C169.80647949 312.21896973 169.61295898 313.43793945 169.41357422 314.69384766 C168.92947083 317.5588471 168.39383369 320.40328399 167.8125 323.25 C167.60455811 324.26827881 167.39661621 325.28655762 167.18237305 326.33569336 C157.84304382 370.23221144 138.37522015 411.20872688 110 446 C109.58169922 446.51981445 109.16339844 447.03962891 108.73242188 447.57519531 C96.1498036 463.1300118 81.89685747 477.99079799 65.68310547 489.77001953 C63.91660161 491.06094591 62.17847151 492.38461622 60.44140625 493.71484375 C51.04725228 500.84588907 41.20421067 507.09560627 31 513 C30.32275879 513.39429199 29.64551758 513.78858398 28.94775391 514.19482422 C5.72585135 527.55154767 -20.25100103 536.24741474 -46.375 541.8125 C-47.28838135 542.00755127 -48.2017627 542.20260254 -49.14282227 542.40356445 C-64.95925936 545.58030432 -80.53332167 546.37688186 -96.625 546.3125 C-97.59588562 546.31034485 -98.56677124 546.3081897 -99.56707764 546.30596924 C-113.90585186 546.25491637 -127.90546967 545.85949913 -142 543 C-143.01545898 542.80132324 -144.03091797 542.60264648 -145.07714844 542.39794922 C-192.09548091 532.99287372 -234.42422238 511.26508843 -269 478 C-269.94045166 477.10039551 -269.94045166 477.10039551 -270.89990234 476.18261719 C-280.08551825 467.35037969 -288.50675288 458.31309032 -296 448 C-297.14855469 446.43378906 -297.14855469 446.43378906 -298.3203125 444.8359375 C-315.20645894 421.12472839 -327.18665431 394.669088 -335.125 366.6875 C-335.44343872 365.57677124 -335.44343872 365.57677124 -335.76831055 364.44360352 C-336.66765625 361.09243697 -337.12078441 359.36235324 -336 356 C-335.81526123 356.5762915 -335.63052246 357.15258301 -335.44018555 357.74633789 C-322.44343634 397.80286394 -301.26740662 431.65429046 -268 458 C-266.90442531 458.88607297 -265.80939135 459.77281485 -264.71484375 460.66015625 C-229.69077043 488.87218964 -188.51839049 505.9775275 -144 512 C-143.30583984 512.103125 -142.61167969 512.20625 -141.89648438 512.3125 C-84.63918326 519.95408451 -26.11097412 501.02736147 19.28979492 466.49609375 C35.06666352 454.26996335 49.81276776 440.87271828 62 425 C62.46116211 424.40993164 62.92232422 423.81986328 63.39746094 423.21191406 C70.68686865 413.8736943 77.27392375 404.37322715 83 394 C83.46937988 393.15018555 83.93875977 392.30037109 84.42236328 391.42480469 C99.73524027 363.43733488 110.82832962 333.60161409 115.125 301.875 C115.29386719 300.67746094 115.46273438 299.47992187 115.63671875 298.24609375 C116.11147746 294.83306461 116.56132509 291.41783379 117 288 C117.10892578 287.20634033 117.21785156 286.41268066 117.33007812 285.5949707 C125.24507781 220.30334114 107.22403394 147.68026899 66.67578125 95.69140625 C60.73681372 88.221191 54.56694877 80.92633402 48 74 C47.53158691 73.50435547 47.06317383 73.00871094 46.58056641 72.49804688 C38.64034233 64.1548558 30.24581051 56.85580712 21 50 C20.43700195 49.5762207 19.87400391 49.15244141 19.29394531 48.71582031 C-35.36938383 7.67889521 -103.29534621 -4.45825436 -170.08984375 4.8125 C-191.94148221 8.08680748 -215.71125654 12.93585063 -235.44140625 23.2734375 C-236.61574219 23.84320313 -237.79007813 24.41296875 -239 25 C-239.66 24.67 -240.32 24.34 -241 24 C-166.72896245 -19.91896295 -81.46682456 -32.04196686 0 0 Z " fill="#FDFDFD" transform="translate(782,242)"/>
<path d="M0 0 C-2.76841096 1.47949215 -5.38648182 2.47444191 -8.421875 3.26171875 C-19.77279466 6.29656912 -30.48409717 9.73132354 -41 15 C-41.97114746 15.48460693 -41.97114746 15.48460693 -42.96191406 15.97900391 C-83.76379606 36.74155686 -115.56731616 76.14561818 -130.12353516 119.33349609 C-133.8541831 131.12025194 -137.00148008 143.00592032 -140 155 C-150.89 155 -161.78 155 -173 155 C-172.32846465 146.94157575 -171.59664572 140.11193936 -169.4375 132.5 C-169.17501465 131.56148193 -168.9125293 130.62296387 -168.64208984 129.65600586 C-160.23053042 100.56216465 -145.23834458 72.85803353 -123 52 C-122.154375 51.154375 -121.30875 50.30875 -120.4375 49.4375 C-119.633125 48.633125 -118.82875 47.82875 -118 47 C-117.51184814 46.48937012 -117.02369629 45.97874023 -116.52075195 45.45263672 C-88.61828641 16.65831155 -39.81574592 -0.95050852 0 0 Z " fill="#FCFCFC" transform="translate(648,286)"/>
<path d="M0 0 C9.57 0 19.14 0 29 0 C29.37125 3.526875 29.7425 7.05375 30.125 10.6875 C34.18032525 44.74246027 49.4037431 73.89442941 71.28515625 99.890625 C73 102 73 102 74 104 C64.28100942 100.5768511 56.39141443 91.9518144 49 85 C48.43619629 84.47019531 47.87239258 83.94039062 47.29150391 83.39453125 C22.97858008 60.35646662 7.27505667 32.73775501 0 0 Z " fill="#FAFAFA" transform="translate(471,572)"/>
<path d="M0 0 C31.6 0 31.6 0 40 7 C43.37259466 10.63885213 44.31456191 13.5301557 44.5625 18.375 C44.31084206 23.98773477 43.06547976 28.02466391 39 32 C29.18732989 38.35683476 22.32498524 38 10 38 C10 47.9 10 57.8 10 68 C6.7 68 3.4 68 0 68 C0 45.56 0 23.12 0 0 Z " fill="#F9F9F9" transform="translate(474,472)"/>
<path d="M0 0 C28 0 28 0 38 4 C41.86310871 7.94194766 44.13644881 10.68972967 44.25 16.1875 C44.16964815 21.74070586 42.87791148 26.00471906 39 30.125 C34.55411566 32.90367771 29.81436502 34.94272318 25 37 C25.68964844 37.81082031 26.37929688 38.62164062 27.08984375 39.45703125 C31.75386565 44.94843329 36.404744 50.45086878 41 56 C41.70125 56.845625 42.4025 57.69125 43.125 58.5625 C44.96212867 60.95076728 46.50629183 63.3860107 48 66 C43.25539427 67.34772023 39.7238405 67.51942086 35 66 C29.89436397 61.32951876 26.32424647 55.14659471 22.59082031 49.37695312 C19.85958116 45.29602243 16.6718864 41.65759851 13.4765625 37.93359375 C12 36 12 36 12 34 C12.65226563 33.89042969 13.30453125 33.78085937 13.9765625 33.66796875 C20.38142324 32.50602499 25.67699701 31.44857072 30.3125 26.5625 C33.25278161 22.09762792 33.36758847 18.33003287 33 13 C31.08085168 7.74759408 30.06362026 7.03817215 25 4 C17.575 3.01 17.575 3.01 10 2 C10 23.45 10 44.9 10 67 C6.7 67 3.4 67 0 67 C0 44.89 0 22.78 0 0 Z " fill="#F5F5F5" transform="translate(587,473)"/>
<path d="M0 0 C27 0 27 0 38 4 C42.17080841 8.17080841 44.14414272 10.92784947 44.25 16.75 C44.16248738 22.83212717 42.72555486 26.23235844 38.4375 30.625 C34.45153882 33.74313166 29.72770814 35.32754989 25 37 C25.73863281 37.84820312 26.47726562 38.69640625 27.23828125 39.5703125 C32.70739202 45.88229054 38.08317828 52.24963373 43.25 58.8125 C43.72735596 59.41658691 44.20471191 60.02067383 44.6965332 60.64306641 C48 64.87282456 48 64.87282456 48 66 C43.50076153 66.67900093 39.47966428 66.89903297 35 66 C31.44082483 62.9077013 29.40436196 59.01681104 27 55 C25.33199929 52.68051978 23.57672253 50.43426722 21.8125 48.1875 C21.01457031 47.14980469 20.21664062 46.11210938 19.39453125 45.04296875 C17.70031584 42.88996092 15.98452723 40.81119834 14.19921875 38.73828125 C12 36 12 36 12 34 C12.95261719 33.84144531 13.90523437 33.68289063 14.88671875 33.51953125 C16.76810547 33.16955078 16.76810547 33.16955078 18.6875 32.8125 C19.92886719 32.59207031 21.17023438 32.37164062 22.44921875 32.14453125 C27.25830083 30.59440908 29.83835787 28.04670279 32.3125 23.6875 C33.61329184 18.60258643 33.56001528 14.5621479 31.8125 9.6875 C29.91988333 6.47224953 29.91988333 6.47224953 25 4 C17.575 3.01 17.575 3.01 10 2 C10 23.45 10 44.9 10 67 C6.7 67 3.4 67 0 67 C0 44.89 0 22.78 0 0 Z " fill="#F7F7F7" transform="translate(233,473)"/>
<path d="M0 0 C0.66 0 1.32 0 2 0 C8.08211479 13.49353183 14.14487248 26.99558113 20.16894531 40.51513672 C21.06934636 42.5342679 21.97107628 44.55280693 22.87402344 46.57080078 C24.20036012 49.53541415 25.5225079 52.50186328 26.84375 55.46875 C27.24783081 56.36968384 27.65191162 57.27061768 28.0682373 58.19885254 C28.43952759 59.03493042 28.81081787 59.8710083 29.19335938 60.73242188 C29.51929077 61.4626355 29.84522217 62.19284912 30.18103027 62.94519043 C30.97893345 64.94714366 31.53081086 66.89908023 32 69 C30.56344146 69.08131463 29.1255517 69.13933559 27.6875 69.1875 C26.48673828 69.23970703 26.48673828 69.23970703 25.26171875 69.29296875 C22.39078353 68.92108595 21.84639866 68.19125828 20 66 C19.11032914 64.35406577 18.28934737 62.67012873 17.51953125 60.96484375 C17.07802734 59.99095703 16.63652344 59.01707031 16.18164062 58.01367188 C15.72982422 56.99853516 15.27800781 55.98339844 14.8125 54.9375 C14.34908203 53.91849609 13.88566406 52.89949219 13.40820312 51.84960938 C10 44.27526694 10 44.27526694 10 42 C-2.375 42.495 -2.375 42.495 -15 43 C-15.74765625 44.79308594 -16.4953125 46.58617187 -17.265625 48.43359375 C-18.25962872 50.76856475 -19.25446345 53.10318212 -20.25 55.4375 C-20.98669922 57.21350586 -20.98669922 57.21350586 -21.73828125 59.02539062 C-22.22167969 60.15009766 -22.70507812 61.27480469 -23.203125 62.43359375 C-23.86296387 63.99678345 -23.86296387 63.99678345 -24.53613281 65.59155273 C-26 68 -26 68 -28.17480469 68.84790039 C-28.77711914 68.89809326 -29.37943359 68.94828613 -30 69 C-29.38470446 65.20688897 -28.27247988 62.11596728 -26.62109375 58.65234375 C-26.11924561 57.58854492 -25.61739746 56.52474609 -25.1003418 55.42871094 C-24.551604 54.27661133 -24.00286621 53.12451172 -23.4375 51.9375 C-22.2608883 49.44361734 -21.09032716 46.94693373 -19.921875 44.44921875 C-19.61207199 43.78729523 -19.30226898 43.1253717 -18.983078 42.44338989 C-14.93640554 33.76397297 -11.06495304 25.00596462 -7.1875 16.25 C-6.82776093 15.43812225 -6.46802185 14.62624451 -6.09738159 13.7897644 C-4.06173763 9.19457909 -2.02936634 4.59796095 0 0 Z " fill="#F7F7F7" transform="translate(318,471)"/>
<path d="M0 0 C3.15544355 2.63308972 4.56026197 5.95895887 6.1875 9.6328125 C6.48666321 10.29381454 6.78582642 10.95481659 7.09405518 11.635849 C8.06948417 13.79591853 9.03494091 15.96028002 10 18.125 C10.67109111 19.61796328 11.34264413 21.11071902 12.01464844 22.60327148 C14.01998801 27.06431151 16.01099558 31.53165877 18 36 C18.57609971 37.2915361 19.15226802 38.5830416 19.72851562 39.87451172 C21.24058525 43.26836029 22.74737098 46.66446221 24.25 50.0625 C24.69085937 51.05846191 25.13171875 52.05442383 25.5859375 53.08056641 C27.89269151 58.33514168 30.04285619 63.60514579 32 69 C28.37 69 24.74 69 21 69 C19.1607188 64.87762652 17.32958658 60.75168422 15.5 56.625 C14.71302734 54.8615625 14.71302734 54.8615625 13.91015625 53.0625 C13.41386719 51.94101562 12.91757812 50.81953125 12.40625 49.6640625 C11.94541016 48.62717285 11.48457031 47.5902832 11.00976562 46.52197266 C10 44 10 44 10 42 C-2.375 42.495 -2.375 42.495 -15 43 C-15.74765625 44.79308594 -16.4953125 46.58617187 -17.265625 48.43359375 C-18.25962872 50.76856475 -19.25446345 53.10318212 -20.25 55.4375 C-20.98669922 57.21350586 -20.98669922 57.21350586 -21.73828125 59.02539062 C-22.22167969 60.15009766 -22.70507812 61.27480469 -23.203125 62.43359375 C-23.86296387 63.99678345 -23.86296387 63.99678345 -24.53613281 65.59155273 C-26 68 -26 68 -28.17480469 68.84790039 C-28.77711914 68.89809326 -29.37943359 68.94828613 -30 69 C-27.28917895 59.9741981 -23.35388355 51.51768567 -19.5 42.9375 C-18.78296441 41.33311448 -18.06616929 39.72862146 -17.34960938 38.12402344 C-11.64989018 25.37782613 -5.86843461 12.66944991 0 0 Z " fill="#F8F8F8" transform="translate(544,471)"/>
<path d="M0 0 C4.68870613 4.01889096 9.16804986 8.00646576 13.5 12.375 C14.06968506 12.94661865 14.63937012 13.5182373 15.22631836 14.10717773 C18.67675615 17.59314127 21.95665971 21.16832929 25.12890625 24.91015625 C28.13530289 28.26803141 31.37231248 31.39245713 34.578125 34.55859375 C38.08126857 38.03513117 41.41010046 41.60737078 44.59765625 45.37890625 C45.98952436 46.98789028 47.4956519 48.4956519 49 50 C49.33 33.83 49.66 17.66 50 1 C51.32 0.67 52.64 0.34 54 0 C54 22.77 54 45.54 54 69 C46.11114431 62.23812369 46.11114431 62.23812369 43.28125 59.4140625 C42.65863281 58.79273438 42.03601563 58.17140625 41.39453125 57.53125 C40.76933594 56.9021875 40.14414062 56.273125 39.5 55.625 C38.56220703 54.69300781 38.56220703 54.69300781 37.60546875 53.7421875 C34.50042864 50.63071873 31.5076285 47.47275137 28.64453125 44.13671875 C24.41093658 39.23428528 19.80062259 34.72970602 15.1875 30.1875 C13.49117754 28.51666699 11.79706127 26.8435903 10.10546875 25.16796875 C9.36449951 24.43860107 8.62353027 23.7092334 7.86010742 22.95776367 C6 21 6 21 4 18 C3.67 34.17 3.34 50.34 3 67 C2.01 67 1.02 67 0 67 C0 44.89 0 22.78 0 0 Z " fill="#F5F5F5" transform="translate(358,472)"/>
<path d="M0 0 C0.66 0 1.32 0 2 0 C3.41015625 1.43359375 3.41015625 1.43359375 5.0625 3.4375 C9.12974522 8.22051302 13.5254604 12.60053657 18 17 C23.00808791 21.92405959 27.85815576 26.88607218 32.43652344 32.21386719 C34.5553549 34.63444355 36.82155892 36.88081142 39.125 39.125 C42.71915838 42.62729491 45.74907303 46.09888764 49 50 C49.33 33.5 49.66 17 50 0 C51.32 0 52.64 0 54 0 C54 22.44 54 44.88 54 68 C50.26919036 65.76151421 48.32201067 64.56498852 45.58203125 61.55859375 C44.97230469 60.89730469 44.36257813 60.23601563 43.734375 59.5546875 C43.10015625 58.85601563 42.4659375 58.15734375 41.8125 57.4375 C40.47661317 55.98703419 39.13937253 54.53781408 37.80078125 53.08984375 C37.15189941 52.38714355 36.50301758 51.68444336 35.83447266 50.96044922 C33.44767404 48.40974481 30.98916965 45.95093355 28.5 43.5 C25.77554658 40.81121864 23.16784266 38.10235524 20.6875 35.1875 C15.41018272 29.19461428 9.64644831 23.64644831 4 18 C3.67 34.17 3.34 50.34 3 67 C2.01 67 1.02 67 0 67 C0 44.89 0 22.78 0 0 Z " fill="#F6F6F6" transform="translate(693,472)"/>
<path d="M0 0 C12.54 0 25.08 0 38 0 C38 0.99 38 1.98 38 3 C28.76 3 19.52 3 10 3 C10 12.24 10 21.48 10 31 C17.26 31 24.52 31 32 31 C32 31.99 32 32.98 32 34 C24.74 34 17.48 34 10 34 C10 43.9 10 53.8 10 64 C19.57 64 29.14 64 39 64 C39 65.32 39 66.64 39 68 C26.13 68 13.26 68 0 68 C0 45.56 0 23.12 0 0 Z " fill="#F3F3F3" transform="translate(646,472)"/>
<path d="M0 0 C0 0.99 0 1.98 0 3 C-2.86331684 2.47939694 -5.53522406 1.82832436 -8.3125 0.9375 C-13.75044698 -0.44502889 -18.01127769 -0.77339201 -23.375 1.3125 C-26.21698375 2.89220247 -26.21698375 2.89220247 -28 6 C-28.59016378 10.09282414 -28.41346622 13.86296789 -27 17.75 C-22.64039343 22.65455739 -16.80395851 25.09246285 -10.9375 27.8125 C-4.06400085 31.1753877 0.99724779 35.86322613 4 43 C4.52623924 49.42011876 3.94209828 54.51851703 -0.40625 59.6640625 C-6.69923863 65.68989595 -14.06486617 67.13011768 -22.5625 67.4375 C-28.05345177 67.29454031 -33.66600574 66.67127184 -38 63 C-38.734375 60.35546875 -38.734375 60.35546875 -39 58 C-38.40574219 58.27714844 -37.81148438 58.55429687 -37.19921875 58.83984375 C-29.28435105 62.29875172 -21.59158326 64.28649342 -13.0625 61.9375 C-9.93189762 60.6953759 -8.79628259 59.78658176 -6.375 57.25 C-4.65589624 53.18666383 -4.79288911 51.22488811 -6 47 C-9.8122101 40.05633161 -14.80973821 36.92638916 -21.875 33.6875 C-28.5654081 30.48175209 -33.5624597 27.0272405 -37.4375 20.625 C-38.68013444 14.82603929 -38.93624278 9.974757 -35.9375 4.6875 C-27.57863109 -7.23338691 -11.6325966 -5.76482663 0 0 Z " fill="#F6F6F6" transform="translate(460,475)"/>
<path d="M0 0 C0.495 1.98 0.495 1.98 1 4 C-0.58357459 3.68872484 -2.16684993 3.37592711 -3.75 3.0625 C-4.63171875 2.88847656 -5.5134375 2.71445312 -6.421875 2.53515625 C-7.96964154 2.21387744 -9.51226133 1.8626119 -11.0390625 1.453125 C-18.91575919 -0.36698818 -25.98914603 1.21767374 -33 5 C-39.61524413 9.16140597 -42.25296517 14.54925134 -44.5859375 21.828125 C-46.44190075 31.56317751 -45.75793188 42.62592676 -40.67578125 51.24609375 C-36.11862669 57.76485815 -30.89845965 61.47126587 -23 63 C-14.21982578 63.84106168 -7.15109092 62.2373127 1 59 C1 60.32 1 61.64 1 63 C-9.90455974 68.27564013 -21.98730238 68.86221143 -33.5625 65.375 C-38.73682058 63.35765203 -42.93451519 60.77379084 -47 57 C-47.55429687 56.48695313 -48.10859375 55.97390625 -48.6796875 55.4453125 C-54.80832487 49.07274926 -57.18948178 41.21521143 -57.5 32.5 C-57.1144547 21.66617715 -53.01564083 12.81332107 -45.2578125 5.31640625 C-32.54763949 -5.25782482 -14.96244727 -5.32561682 0 0 Z " fill="#F8F8F8" transform="translate(814,474)"/>
<path d="M0 0 C16.83 0 33.66 0 51 0 C51 0.99 51 1.98 51 3 C44.4 3 37.8 3 31 3 C31 24.45 31 45.9 31 68 C27.37 68 23.74 68 20 68 C20 46.55 20 25.1 20 3 C13.4 3 6.8 3 0 3 C0 2.01 0 1.02 0 0 Z " fill="#F1F1F1" transform="translate(172,472)"/>
<path d="M0 0 C3.48551439 -0.55795784 6.52568444 -0.68789942 10 0 C11.60009766 1.62158203 11.60009766 1.62158203 12.9140625 3.8203125 C13.41405762 4.63781982 13.91405273 5.45532715 14.42919922 6.29760742 C14.94756348 7.18939697 15.46592773 8.08118652 16 9 C16.5480127 9.91434814 17.09602539 10.82869629 17.66064453 11.77075195 C19.96916374 15.64427333 22.23112286 19.5442652 24.49609375 23.44335938 C25.04910156 24.38888672 25.60210938 25.33441406 26.171875 26.30859375 C26.6678418 27.16251709 27.16380859 28.01644043 27.67480469 28.89624023 C28.9582334 31.10584676 28.9582334 31.10584676 31 33 C31.33209473 32.35562988 31.66418945 31.71125977 32.00634766 31.04736328 C33.54251097 28.07147979 35.08372527 25.09823919 36.625 22.125 C37.14707031 21.11179687 37.66914062 20.09859375 38.20703125 19.0546875 C40.79405565 14.07227013 43.42933051 9.11903092 46.2109375 4.2421875 C46.90775635 3.01411377 46.90775635 3.01411377 47.61865234 1.76123047 C48.07449707 1.18002441 48.5303418 0.59881836 49 0 C49.99 0 50.98 0 52 0 C50.63457183 4.67141007 48.6866133 8.40549268 46.12109375 12.53125 C34.78811333 31.42894583 30.24116643 45.80347215 32 68 C28.7 68 25.4 68 22 68 C22.0220752 67.18547363 22.04415039 66.37094727 22.06689453 65.53173828 C22.37790281 49.20034782 22.29067627 35.87971903 12.48632812 22.12695312 C10.29705045 18.99407088 8.34121623 15.72983314 6.36474609 12.45996094 C5.39060773 10.85140339 4.40438821 9.25008457 3.40478516 7.65722656 C2.95925293 6.9453418 2.5137207 6.23345703 2.0546875 5.5 C1.65749512 4.8709375 1.26030273 4.241875 0.85107422 3.59375 C0 2 0 2 0 0 Z " fill="#F9F9F9" transform="translate(823,472)"/>
<path d="M0 0 C15.3803066 0 15.3803066 0 21.5 6.0625 C24.39899852 9.79091227 24.70262576 13.00732219 24.38671875 17.640625 C23.32434105 24.12220206 20.07765439 27.29754368 15 31 C12 32 12 32 0 32 C0 21.44 0 10.88 0 0 Z " fill="#010101" transform="translate(484,475)"/>
<path d="M0 0 C2.95632055 1.47816027 3.18993491 3.52303906 4.3828125 6.56640625 C5.04990234 8.2534668 5.04990234 8.2534668 5.73046875 9.97460938 C6.19066406 11.15861328 6.65085937 12.34261719 7.125 13.5625 C7.59292969 14.75037109 8.06085938 15.93824219 8.54296875 17.16210938 C9.70147295 20.10565576 10.85152367 23.0525266 12 26 C4.41 26 -3.18 26 -11 26 C-9.71740753 22.15222258 -8.49349631 18.68569188 -6.8359375 15.0390625 C-6.43632812 14.15605469 -6.03671875 13.27304687 -5.625 12.36328125 C-5.2125 11.45964844 -4.8 10.55601562 -4.375 9.625 C-3.95476562 8.69816406 -3.53453125 7.77132813 -3.1015625 6.81640625 C-2.07035118 4.54305401 -1.03643137 2.27097594 0 0 Z " fill="#040404" transform="translate(315,485)"/>
<path d="M0 0 C2.36944378 2.92082378 3.86355052 5.71783607 5.26171875 9.203125 C5.65810547 10.1828125 6.05449219 11.1625 6.46289062 12.171875 C6.86701172 13.18765625 7.27113281 14.2034375 7.6875 15.25 C8.10322266 16.28125 8.51894531 17.3125 8.94726562 18.375 C9.97013643 20.9145413 10.98577426 23.45699374 12 26 C4.41 26 -3.18 26 -11 26 C-9.71740753 22.15222258 -8.49349631 18.68569188 -6.8359375 15.0390625 C-6.43632813 14.15605469 -6.03671875 13.27304687 -5.625 12.36328125 C-5.2125 11.45964844 -4.8 10.55601562 -4.375 9.625 C-3.95476563 8.69816406 -3.53453125 7.77132813 -3.1015625 6.81640625 C-2.07035118 4.54305401 -1.03643137 2.27097594 0 0 Z " fill="#040404" transform="translate(541,485)"/>
<path d="M0 0 C2.16516389 2.16516389 2.56366763 3.28646226 3.4453125 6.15625 C3.71400146 7.00614502 3.98269043 7.85604004 4.25952148 8.73168945 C4.54512939 9.64523193 4.8307373 10.55877441 5.125 11.5 C8.39660151 21.68135078 12.45423244 31.32991264 17 41 C15.02 41.495 15.02 41.495 13 42 C9.00624518 32.32282486 5.43105546 22.63749059 2.5625 12.5625 C2.30388184 11.65733643 2.04526367 10.75217285 1.77880859 9.81958008 C0 3.41330883 0 3.41330883 0 0 Z " fill="#EFEFEF" transform="translate(445,598)"/>
<path d="M0 0 C2.32431618 2.32431618 2.75875528 3.88932258 3.7265625 7.0078125 C4.0359375 7.99394531 4.3453125 8.98007812 4.6640625 9.99609375 C4.98117187 11.02863281 5.29828125 12.06117188 5.625 13.125 C5.94984375 14.16527344 6.2746875 15.20554687 6.609375 16.27734375 C7.4118198 18.84988737 8.20843503 21.42409194 9 24 C8.01 24 7.02 24 6 24 C4.99353274 20.56435978 3.9959455 17.12620371 3 13.6875 C2.71382813 12.71103516 2.42765625 11.73457031 2.1328125 10.72851562 C1.86210937 9.79072266 1.59140625 8.85292969 1.3125 7.88671875 C1.06113281 7.02264404 0.80976563 6.15856934 0.55078125 5.26831055 C0 3 0 3 0 0 Z " fill="#D8D8D8" transform="translate(445,598)"/>
<path d="M0 0 C0.99 0 1.98 0 3 0 C1.78172689 4.02967261 0.52453645 7.60158555 -2 11 C-4.1875 11.8125 -4.1875 11.8125 -6 12 C-4.43358249 7.69235185 -2.31663844 3.93828536 0 0 Z " fill="#F3F3F2" transform="translate(872,472)"/>
<path d="M0 0 C2.97 0 5.94 0 9 0 C9 0.33 9 0.66 9 1 C7.7934375 1.185625 7.7934375 1.185625 6.5625 1.375 C5.716875 1.58125 4.87125 1.7875 4 2 C3.67 2.66 3.34 3.32 3 4 C2.34 4 1.68 4 1 4 C0.67 2.68 0.34 1.36 0 0 Z " fill="#E2E2E2" transform="translate(823,472)"/>
</svg>
